<svg width="37" height="36" viewBox="0 0 37 36" fill="none" xmlns="http://www.w3.org/2000/svg">
<path d="M26.7158 29.1106C26.7158 31.3192 26.7158 33.516 26.7158 35.7289C26.6568 35.7326 26.6021 35.7389 26.5474 35.7395C26.1384 35.7413 25.7294 35.742 25.321 35.7426C23.9441 35.7438 22.5672 35.7451 21.191 35.7463C17.4439 35.7507 13.6968 35.7556 9.94978 35.76C9.88824 35.76 9.82732 35.76 9.76889 35.76C9.73532 35.6369 9.72413 29.5265 9.75645 29.2853C9.91497 29.2455 10.0784 29.2032 10.2432 29.1635C10.6851 29.0578 11.1265 28.9509 11.5697 28.8502C11.6654 28.8284 11.7183 28.7793 11.7593 28.6923C12.2348 27.6772 12.5972 26.6229 12.8496 25.5314C12.9646 25.0335 13.0659 24.5306 13.1449 24.0259C13.2375 23.4366 13.2474 22.8417 13.2083 22.2456C13.1996 22.1113 13.207 21.9764 13.2014 21.8421C13.1846 21.4393 13.1654 21.0365 13.1461 20.6337C13.1393 20.4852 13.1287 20.3366 13.1436 20.1787C13.1641 20.2036 13.1884 20.2266 13.2051 20.2545C13.5054 20.7562 13.8062 21.2572 14.1028 21.7607C14.1705 21.8763 14.2314 21.9975 14.2824 22.1212C14.6585 23.03 14.9966 23.9525 15.18 24.9222C15.2583 25.3381 15.3043 25.7608 15.3547 26.181C15.4504 26.9773 15.5691 27.7692 15.7886 28.5425C15.8389 28.7209 15.9042 28.8968 15.9806 29.0659C16.1777 29.5041 16.4854 29.8454 16.9124 30.0716C17.319 30.2873 17.7541 30.4247 18.211 30.4595C18.9059 30.513 19.5077 30.26 20.0453 29.8354C20.4736 29.4973 20.708 29.0373 20.864 28.5282C21.007 28.062 21.0766 27.5808 21.1444 27.0991C21.2482 26.3619 21.3302 25.6215 21.4583 24.8887C21.6522 23.7766 21.9991 22.7105 22.5747 21.7321C22.8762 21.2199 23.2062 20.7251 23.555 20.2278C23.55 20.3211 23.5456 20.4143 23.54 20.5069C23.5034 21.1677 23.4431 21.8285 23.4344 22.4899C23.4157 23.8667 23.6581 25.2069 24.0634 26.5191C24.2897 27.2514 24.5676 27.9631 24.8809 28.6624C24.9231 28.7563 24.9729 28.8048 25.081 28.8222C25.62 28.9117 26.1583 29.0118 26.7158 29.1106ZM16.1329 33.2711C16.243 33.2698 16.3088 33.2232 16.3406 33.1455C16.371 33.0709 16.3548 32.9895 16.289 32.9354C16.2498 32.9031 16.2019 32.8801 16.1559 32.8571C14.8307 32.2031 13.5048 31.5498 12.1782 30.8971C12.141 30.8791 12.1037 30.8611 12.0645 30.8486C11.9681 30.8188 11.8743 30.8605 11.8314 30.9487C11.791 31.0314 11.8096 31.1278 11.888 31.1843C11.942 31.2229 12.0048 31.2502 12.0645 31.28C12.7228 31.6051 13.3811 31.929 14.0394 32.2535C14.684 32.5711 15.3279 32.8888 15.9732 33.2052C16.0322 33.2338 16.095 33.2555 16.1329 33.2711ZM24.6863 31.0264C24.6832 30.9052 24.5707 30.8145 24.4526 30.8424C24.4128 30.8518 24.3749 30.8704 24.3376 30.8884C23.003 31.5467 21.6684 32.205 20.3338 32.8639C20.3015 32.8801 20.2673 32.8937 20.2374 32.9136C20.1485 32.9733 20.1212 33.0666 20.1628 33.1561C20.2057 33.2474 20.2909 33.2891 20.3941 33.2605C20.4432 33.2468 20.4892 33.2213 20.5358 33.199C21.848 32.5531 23.1602 31.9073 24.4725 31.2614C24.5141 31.2409 24.557 31.2216 24.5962 31.1967C24.6565 31.157 24.6888 31.1004 24.6863 31.0264Z" fill="#00FF84"/>
<path d="M15.0732 12.6056C15.5432 12.618 15.9814 12.6298 16.4165 12.6417C16.4383 12.702 16.4507 12.7573 16.4775 12.8045C16.7323 13.2502 17.0158 13.676 17.3937 14.0303C17.6343 14.256 17.9022 14.435 18.2316 14.5084C18.5505 14.5792 18.8477 14.5177 19.1305 14.3672C19.3568 14.2473 19.5495 14.0832 19.7248 13.8979C20.0362 13.5685 20.2842 13.1943 20.5074 12.802C20.5347 12.7542 20.5484 12.6988 20.5751 12.6311C20.8928 12.6224 21.2166 12.6143 21.5666 12.605C21.5492 12.6976 21.5367 12.771 21.5212 12.8437C21.3677 13.5753 21.1147 14.274 20.807 14.954C20.4558 15.7311 20.1014 16.5068 19.7515 17.2845C19.4618 17.9272 19.3325 18.6029 19.3686 19.3072C19.3984 19.9008 19.5333 20.4739 19.7509 21.0253C20.0014 21.66 20.2606 22.2909 20.5198 22.9218C20.8219 23.6578 20.9475 24.423 20.8778 25.2143C20.7747 26.3836 20.3625 27.4223 19.5333 28.2758C19.3543 28.4598 19.1336 28.5661 18.8874 28.6251C18.4393 28.732 17.9961 28.7215 17.5603 28.5623C17.3875 28.4996 17.2383 28.4013 17.1072 28.272C16.59 27.7642 16.25 27.1507 16.0212 26.4688C15.8167 25.8602 15.7011 25.2386 15.744 24.594C15.7813 24.0327 15.9006 23.4875 16.0977 22.9629C16.2922 22.4457 16.5067 21.9353 16.7261 21.4287C17.0686 20.6393 17.2607 19.8225 17.2302 18.9585C17.2041 18.215 17.0251 17.5064 16.7218 16.8301C16.5869 16.5286 16.4284 16.237 16.273 15.9455C15.8273 15.1076 15.4499 14.2423 15.2274 13.3161C15.1727 13.0911 15.1286 12.8629 15.0732 12.6056ZM17.8264 27.0587C17.7511 26.8423 17.6753 26.6633 17.574 26.4955C17.4161 26.2332 17.188 26.0697 16.8871 26.0088C16.8094 25.9932 16.7323 25.9634 16.636 25.9963C16.6695 26.0392 16.6932 26.0715 16.7199 26.1014C16.9281 26.3314 17.142 26.557 17.3434 26.7926C17.4646 26.9356 17.6218 26.9965 17.8264 27.0587ZM19.0727 27.0089C19.3742 26.6845 19.6924 26.3736 19.9784 26.0293C19.6999 26.0423 19.4488 26.1175 19.2293 26.2835C19.0627 26.4097 18.9577 26.5763 18.9104 26.7802C18.8794 26.9176 18.8731 26.9729 19.0727 27.0089Z" fill="#00FF84"/>
<path d="M17.4362 5.56599C17.1229 7.8013 16.8127 10.0167 16.5001 12.2483C16.4416 12.2483 16.3913 12.2495 16.3409 12.2483C15.674 12.2309 15.0063 12.2178 14.3394 12.1942C13.719 12.1725 13.0992 12.142 12.4795 12.1128C12.0195 12.091 11.5601 12.0674 11.1008 12.0401C10.7085 12.0164 10.3169 11.9872 9.92469 11.9593C9.59461 11.9356 9.26453 11.9133 8.93446 11.8859C8.50182 11.8505 8.06918 11.8119 7.63654 11.7734C7.27103 11.7404 6.90552 11.7063 6.54064 11.669C6.09308 11.6236 5.64614 11.5751 5.19983 11.5254C4.80945 11.4819 4.4197 11.4371 4.02995 11.3892C3.58364 11.3345 3.13794 11.278 2.69225 11.2183C2.21112 11.1536 1.73062 11.0822 1.24949 11.0175C0.983443 10.9821 0.715529 10.9597 0.44948 10.9224C0.348779 10.9081 0.249321 10.8727 0.153593 10.836C0.0814865 10.8087 0.00254201 10.7689 5.55674e-05 10.6794C-0.00243087 10.5874 0.0790001 10.5519 0.149242 10.5209C0.215133 10.4916 0.284131 10.4686 0.35313 10.4481C2.44858 9.83397 4.54465 9.22044 6.64072 8.60691C7.92869 8.22959 9.21729 7.85228 10.5053 7.47558C10.5295 7.46874 10.5544 7.46439 10.5848 7.45755C10.601 7.49299 10.619 7.52407 10.6302 7.55763C10.9143 8.41173 11.5173 8.93077 12.357 9.19806C12.85 9.35471 13.3541 9.36341 13.8601 9.27949C14.0559 9.24717 14.2324 9.17631 14.3599 9.00412C14.4581 8.87172 14.5762 8.75361 14.6949 8.63799C14.8503 8.48694 14.8826 8.32035 14.7757 8.13387C14.6452 7.90511 14.5271 7.66642 14.3698 7.45755C14.1622 7.18156 13.9229 6.92919 13.6954 6.66811C13.6724 6.64138 13.6357 6.62708 13.5779 6.58854C13.6494 6.55871 13.6786 6.54379 13.7097 6.53446C14.6564 6.25785 15.6019 5.9775 16.5504 5.70834C16.7829 5.64245 17.0253 5.61075 17.264 5.56724C17.3131 5.55791 17.3654 5.56599 17.4362 5.56599Z" fill="#00FF84"/>
<path d="M20.4785 12.2341C20.1689 10.0243 19.8624 7.83623 19.5516 5.61646C20.6239 5.90053 21.6545 6.2275 22.7119 6.52774C22.6622 6.58555 22.6261 6.62844 22.5894 6.67071C22.278 7.02502 21.9809 7.38991 21.772 7.81696C21.7242 7.91393 21.6887 8.01711 21.6496 8.11844C21.6048 8.23592 21.6303 8.3447 21.7099 8.4367C21.8758 8.62816 22.0362 8.82707 22.219 9.0005C22.3483 9.12296 22.5105 9.21123 22.6603 9.31193C22.6889 9.3312 22.7274 9.34114 22.7623 9.34612C23.837 9.48287 25.0672 8.96383 25.5937 7.9736C25.6658 7.83747 25.7099 7.68704 25.7671 7.54345C25.7783 7.51485 25.7895 7.48688 25.805 7.44585C25.8566 7.45829 25.9051 7.46823 25.953 7.48191C28.1336 8.11968 30.3142 8.75807 32.4942 9.39709C33.7082 9.75265 34.9222 10.1095 36.1356 10.4669C36.2095 10.4886 36.2841 10.5147 36.35 10.5539C36.4781 10.6297 36.4781 10.7236 36.3494 10.8032C36.2848 10.8436 36.2108 10.879 36.1368 10.8914C35.918 10.9281 35.6973 10.9517 35.4773 10.9822C35.1342 11.0294 34.7917 11.0779 34.4491 11.1252C34.0246 11.1836 33.5994 11.242 33.1742 11.2974C32.713 11.3576 32.2518 11.4161 31.7899 11.4714C31.3796 11.5205 30.9681 11.5634 30.5572 11.6082C30.1973 11.6467 29.838 11.6859 29.4775 11.7207C29.1021 11.7573 28.726 11.7915 28.3499 11.8239C27.8862 11.8636 27.4225 11.9028 26.9587 11.9382C26.6131 11.965 26.2675 11.988 25.9219 12.0103C25.4731 12.0396 25.0237 12.0669 24.5749 12.0936C24.348 12.1073 24.1205 12.121 23.893 12.1297C23.2465 12.1546 22.6006 12.1794 21.9542 12.2006C21.5252 12.2148 21.0957 12.2236 20.6662 12.2347C20.6115 12.2354 20.5549 12.2341 20.4785 12.2341Z" fill="#00FF84"/>
<path d="M28.9813 29.509C31.3888 29.9373 33.7851 30.3637 36.1852 30.7908C36.1852 32.4412 36.1852 34.0748 36.1852 35.7065C36.0615 35.7407 29.1318 35.7481 28.9813 35.7139C28.9813 33.6546 28.9813 31.5933 28.9813 29.509Z" fill="#00FF84"/>
<path d="M7.487 29.8218C7.487 31.819 7.487 33.7783 7.487 35.7513C5.05713 35.7513 2.63285 35.7513 0.197998 35.7513C0.197998 34.3614 0.197998 32.9727 0.197998 31.5654C2.61979 30.9861 5.04221 30.4067 7.487 29.8218Z" fill="#00FF84"/>
<path d="M15.3352 23.7729C15.2861 23.6163 15.2438 23.4733 15.1972 23.3316C14.9585 22.6018 14.6297 21.9124 14.2641 21.2392C14.0746 20.8892 13.8887 20.5368 13.6817 20.1974C13.5045 19.9065 13.3031 19.6305 13.1067 19.3514C12.9936 19.191 12.8724 19.0356 12.7505 18.8821C12.2837 18.2953 11.9909 17.6326 11.8647 16.8929C11.7734 16.3565 11.7062 15.8188 11.7354 15.2736C11.751 14.9889 11.7939 14.7086 11.8846 14.4369C11.8958 14.4034 11.9107 14.3704 11.9337 14.3132C11.9629 14.3791 11.9847 14.4239 12.004 14.4699C12.1202 14.7465 12.234 15.0231 12.3515 15.2991C12.6007 15.884 13.0278 16.2974 13.6077 16.5436C14.1417 16.7705 14.7005 16.8823 15.2855 16.8438C15.5329 16.8276 15.7821 16.8314 16.0295 16.8171C16.1358 16.8109 16.2029 16.8519 16.262 16.9346C16.4895 17.2547 16.6368 17.6121 16.7493 17.9845C16.9986 18.8093 16.9626 19.6292 16.671 20.4355C16.474 20.9794 16.2502 21.5133 16.0507 22.0566C15.8816 22.5172 15.7274 22.9835 15.5708 23.4484C15.5273 23.5758 15.4607 23.6803 15.3352 23.7729Z" fill="#00FF84"/>
<path d="M24.3198 14.5208C24.5473 15.0199 24.6511 15.5215 24.5691 16.0648C24.4081 17.1309 24.0506 18.1273 23.5552 19.0765C23.1679 19.8187 22.7533 20.546 22.3536 21.282C21.9434 22.0373 21.5847 22.8149 21.333 23.6392C21.3242 23.6677 21.3118 23.6945 21.2981 23.7318C21.203 23.6827 21.1409 23.6211 21.1222 23.5223C21.0253 23.0051 20.8263 22.5227 20.6156 22.0447C20.3595 21.4629 20.1084 20.8798 19.9207 20.2713C19.7746 19.7976 19.7025 19.3152 19.7441 18.8186C19.7795 18.3977 19.8902 17.9956 20.0369 17.6021C20.1034 17.4231 20.1786 17.2471 20.2545 17.0718C20.2787 17.0159 20.3154 16.9643 20.3527 16.9152C20.444 16.794 20.5516 16.7585 20.7138 16.7865C21.1887 16.868 21.6668 16.9046 22.1473 16.807C22.8236 16.6697 23.3594 16.3228 23.746 15.7509C23.9648 15.4271 24.1103 15.0684 24.2489 14.7054C24.2719 14.6438 24.2962 14.5823 24.3198 14.5208Z" fill="#00FF84"/>
<path d="M26.0999 4.59692C26.0756 4.75916 26.0638 4.90151 26.0315 5.03889C25.8469 5.82274 25.6635 6.60659 25.4664 7.38733C25.2986 8.05059 24.8535 8.48447 24.2543 8.77601C23.8266 8.98363 23.3728 9.06071 22.8992 9.02652C22.865 9.02403 22.8314 9.01098 22.7773 8.99792C22.7972 8.91712 22.8122 8.84376 22.8345 8.77228C23.0707 8.0251 23.4412 7.34879 23.9136 6.72718C24.5185 5.93152 25.2489 5.26267 26.0253 4.63982C26.0402 4.62738 26.0588 4.61992 26.0999 4.59692Z" fill="#00FF84"/>
<path d="M13.6067 8.99409C13.3941 8.99471 13.2188 9.00652 13.0454 8.99285C12.5947 8.95741 12.1733 8.8275 11.7953 8.57326C11.3913 8.30162 11.106 7.93984 10.9524 7.47425C10.7442 6.84456 10.6043 6.19871 10.4925 5.54602C10.4477 5.28681 10.4085 5.02697 10.3632 4.74414C10.4148 4.76279 10.4514 4.77087 10.4838 4.78827C10.7958 4.95549 11.0737 5.17119 11.3291 5.41486C12.2516 6.29381 12.9696 7.3145 13.442 8.50115C13.501 8.6491 13.5433 8.80263 13.6067 8.99409Z" fill="#00FF84"/>
<path d="M15.8764 16.2744C15.7036 16.3558 15.5326 16.3919 15.3598 16.4161C14.8028 16.4944 14.277 16.3888 13.7909 16.1122C12.971 15.6453 12.4364 14.9597 12.248 14.0248C12.2051 13.8122 12.1908 13.5959 12.2399 13.3708C12.2723 13.3833 12.3021 13.3907 12.3276 13.4044C13.2314 13.8911 14.0923 14.4406 14.8644 15.1219C15.2063 15.4234 15.5227 15.7504 15.7831 16.1271C15.8154 16.1718 15.8428 16.2203 15.8764 16.2744Z" fill="#00FF84"/>
<path d="M19.8754 10.7862C20.0022 10.9478 20.0463 11.1368 20.0718 11.3332C20.0929 11.4967 20.1097 11.6614 20.1365 11.8243C20.1476 11.892 20.1259 11.9362 20.0718 11.9666C19.9326 12.0443 19.7958 12.1301 19.6491 12.1904C19.4925 12.2551 19.3277 12.3048 19.1618 12.3408C18.6726 12.4478 18.2207 12.6467 17.783 12.8829C17.6015 12.9811 17.4182 13.0774 17.2354 13.1738C17.1993 13.1931 17.1614 13.208 17.1279 13.2235C16.7201 12.9077 16.7039 12.4055 16.8307 12.0711C16.8817 11.9368 16.9793 11.8336 17.0949 11.7528C17.1919 11.685 17.2938 11.6216 17.402 11.5731C18.1871 11.2226 19.0101 10.9863 19.8431 10.7818C19.8474 10.7812 19.853 10.7837 19.8754 10.7862Z" fill="#00FF84"/>
<path d="M19.6396 8.59082C19.6719 8.79347 19.7117 8.96938 19.7254 9.14778C19.7508 9.48159 19.7614 9.81726 19.7801 10.179C18.88 10.4992 17.9563 10.818 17.017 11.1463C17.0052 11.0648 16.9909 10.9958 16.9853 10.9256C16.9455 10.4264 17.0444 9.95028 17.2259 9.48656C17.2563 9.40824 17.3067 9.37405 17.3782 9.35043C17.9413 9.16332 18.5039 8.97622 19.0665 8.78787C19.2461 8.7282 19.4251 8.66479 19.6396 8.59082Z" fill="#00FF84"/>
<path d="M23.8723 13.74C23.9922 15.115 23.2998 16.1145 22.0982 16.4309C21.6587 16.5466 21.2261 16.4757 20.8059 16.3203C20.7928 16.3153 20.7835 16.301 20.7617 16.2818C20.7916 16.2345 20.8195 16.1866 20.8506 16.1406C21.2801 15.4991 21.8352 14.9863 22.4674 14.5512C22.8895 14.2603 23.3352 14.0091 23.7896 13.7736C23.8113 13.7611 23.8356 13.7543 23.8723 13.74Z" fill="#00FF84"/>
<path d="M16.1071 27.7138C16.2358 27.873 16.3613 28.0346 16.4937 28.1906C16.6007 28.3162 16.7063 28.4461 16.8294 28.5542C17.8203 29.4245 19.3239 29.2734 20.1271 28.2267C20.2532 28.0625 20.3751 27.8953 20.4994 27.7306C20.5236 27.6989 20.5497 27.6684 20.5939 27.615C20.5995 27.817 20.5665 27.9867 20.5342 28.1552C20.3732 28.99 19.9089 29.5923 19.1374 29.9547C19.0865 29.979 19.0324 30.0038 18.9771 30.0101C18.5276 30.0567 18.0795 30.0579 17.6387 29.9379C16.9842 29.7602 16.5335 29.3543 16.2818 28.7264C16.1543 28.4075 16.0853 28.0756 16.071 27.7331C16.0835 27.7269 16.0953 27.7207 16.1071 27.7138Z" fill="#00FF84"/>
<path d="M17.304 8.87586C17.322 8.72606 17.3363 8.58868 17.3549 8.45193C17.4047 8.08331 17.4581 7.71532 17.5663 7.35727C17.5936 7.26589 17.6409 7.20933 17.7285 7.16768C18.2426 6.92525 18.7542 6.67661 19.2664 6.43045C19.2844 6.42175 19.3037 6.41677 19.3453 6.40186C19.3702 6.55042 19.3988 6.69028 19.4174 6.83201C19.4622 7.17514 19.4995 7.51951 19.5449 7.86326C19.5548 7.93723 19.5318 7.98261 19.4703 8.01431C19.2409 8.13304 19.0196 8.27042 18.7809 8.36428C18.3296 8.54206 17.8684 8.69498 17.4109 8.85722C17.3835 8.86778 17.3531 8.8684 17.304 8.87586Z" fill="#00FF84"/>
<path d="M11.9746 12.4851C12.8915 12.5243 13.7735 12.5616 14.6575 12.5989C14.7464 12.9687 14.829 13.3305 14.9204 13.6898C15.0106 14.0435 15.1641 14.3792 15.2368 14.7621C15.1834 14.7353 15.1467 14.721 15.1144 14.7005C14.2746 14.1809 13.4348 13.6612 12.5956 13.1409C12.4048 13.0228 12.2326 12.8836 12.1027 12.6983C12.0616 12.6405 12.0287 12.5765 11.9746 12.4851Z" fill="#00FF84"/>
<path d="M21.4302 14.7801C21.3768 14.6626 21.3948 14.5657 21.4377 14.4668C21.6472 13.987 21.7995 13.4884 21.902 12.975C21.9194 12.8892 21.935 12.8022 21.9505 12.7158C21.9723 12.5927 21.9729 12.5896 22.0972 12.5846C22.459 12.5709 22.8208 12.5604 23.1826 12.5473C23.3989 12.5392 23.6158 12.5274 23.8433 12.5168C23.9161 12.7251 23.9801 12.9302 24.0105 13.1453C24.0217 13.2242 23.9714 13.2535 23.9129 13.2827C23.6693 13.407 23.4262 13.5338 23.1832 13.66C22.6486 13.936 22.1569 14.2791 21.6646 14.6216C21.5887 14.6745 21.5123 14.7248 21.4302 14.7801Z" fill="#00FF84"/>
<path d="M17.5885 6.71084C17.5791 6.69468 17.5704 6.68598 17.5704 6.67789C17.5773 6.28006 17.5897 5.88161 17.6711 5.49062C17.7321 5.19846 17.893 4.97157 18.1467 4.8112C18.4506 4.61912 18.7857 4.49853 19.1238 4.3854C19.1369 4.38104 19.1531 4.38664 19.1879 4.38913C19.204 4.50847 19.232 4.62907 19.2351 4.75028C19.2438 5.11206 19.2413 5.47384 19.2469 5.83561C19.2482 5.91766 19.2084 5.95558 19.1419 5.98666C18.9032 6.09793 18.6657 6.21169 18.4276 6.32358C18.1709 6.44479 17.9136 6.56476 17.6562 6.68535C17.6338 6.69592 17.6102 6.70276 17.5885 6.71084Z" fill="#00FF84"/>
<path d="M20.0204 12.6729C20.0689 12.8954 20.0322 13.0719 19.9371 13.2391C19.8401 13.4088 19.699 13.5369 19.5399 13.6457C19.2123 13.8688 18.8456 14.0068 18.4695 14.1206C18.4285 14.133 18.375 14.133 18.3352 14.1181C18.1133 14.0354 17.8933 13.9465 17.6602 13.8552C17.6782 13.8129 17.6888 13.7743 17.7086 13.7414C17.8299 13.5369 18.002 13.3834 18.2028 13.2597C18.4421 13.1123 18.7014 13.0104 18.9711 12.937C19.3124 12.8432 19.658 12.763 20.0204 12.6729Z" fill="#00FF84"/>
<path d="M17.8269 4.46019C17.7417 4.24884 17.7119 4.03252 17.7417 3.80812C17.7778 3.53337 17.894 3.29405 18.0712 3.08395C18.2987 2.81417 18.5846 2.62085 18.8973 2.46544C18.9104 2.45923 18.9271 2.46171 18.9508 2.45923C19.0266 2.65317 19.0589 2.85706 19.0757 3.06219C19.0856 3.18527 19.0844 3.31146 19.0676 3.43329C19.0191 3.79196 18.8246 4.05242 18.5076 4.22336C18.2968 4.33711 18.0718 4.4086 17.8269 4.46019Z" fill="#00FF84"/>
<path d="M22.4301 8.75056C22.2797 8.58023 22.1342 8.4211 21.9981 8.25513C21.977 8.22902 21.9825 8.16313 21.9993 8.12646C22.0634 7.98597 22.128 7.84425 22.2082 7.71184C22.4208 7.36126 22.6856 7.04983 22.9659 6.75208C23.6031 6.07577 24.3086 5.48026 25.0713 4.95065C25.1012 4.93014 25.1322 4.91149 25.1695 4.89844C25.1503 4.94879 25.1068 4.97925 25.0688 5.01344C24.4715 5.55113 23.9195 6.12985 23.4582 6.79C23.1823 7.18534 22.9454 7.60182 22.7521 8.04378C22.6508 8.2744 22.5432 8.50191 22.4301 8.75056Z" fill="#00FF84"/>
<path d="M14.0169 8.87778C13.5277 7.7682 12.9726 6.71706 12.1533 5.79272C12.1962 5.80267 12.2118 5.80205 12.2211 5.80951C12.847 6.29561 13.4394 6.81838 13.9436 7.43378C14.1375 7.67061 14.3116 7.9205 14.444 8.19711C14.5136 8.34257 14.5123 8.34381 14.3998 8.46565C14.2743 8.60178 14.1481 8.73667 14.0169 8.87778Z" fill="#00FF84"/>
<path d="M18.5222 0C18.5589 0.200158 18.593 0.380425 18.6247 0.560692C18.6751 0.84539 18.7267 1.12947 18.7739 1.41478C18.815 1.66219 18.7497 1.88597 18.6098 2.08985C18.4861 2.27012 18.3313 2.41993 18.1573 2.55606C18.0299 2.21604 18.2623 0.573746 18.5222 0Z" fill="#00FF84"/>
</svg>
